<svg width="205" height="35" viewBox="0 0 205 35" fill="none" xmlns="http://www.w3.org/2000/svg">
<path fill-rule="evenodd" clip-rule="evenodd" d="M19.9495 5.80664C17.5597 5.80664 15.6224 7.74398 15.6224 10.1338C15.6224 12.5236 17.5597 14.461 19.9495 14.461C22.3394 14.461 24.2767 12.5236 24.2767 10.1338C24.2767 7.74398 22.3394 5.80664 19.9495 5.80664ZM11.4889 14.2249C15.9933 14.2249 19.6448 17.8764 19.6448 22.3807V29.0652H15.5881V22.3807C15.5881 21.901 15.5057 21.4406 15.3542 21.0127L9.39549 26.9715L6.52695 24.103L12.2733 18.3566C12.0195 18.3074 11.7572 18.2816 11.4889 18.2816H4.80444V14.2249H11.4889ZM28.5111 14.2249C24.0068 14.2249 20.3553 17.8764 20.3553 22.3807V29.0652H24.412V22.3807C24.412 22.0049 24.4626 21.641 24.5573 21.2953L30.7906 27.5285L33.6591 24.66L27.4259 18.4268C27.7716 18.3321 28.1355 18.2816 28.5111 18.2816H35.1957V14.2249H28.5111Z" fill="#168BD9"/>
<path d="M47.98 25.4359V8.63591H51.808L58.192 19.2319L56.608 19.2439L62.68 8.63591H66.496V25.4359H62.632L62.704 13.7239L63.412 13.9759L58.564 22.2679H55.912L50.872 13.9759L51.556 13.7239L51.628 25.4359H47.98ZM75.9046 25.7959C74.5606 25.7959 73.3806 25.5279 72.3646 24.9919C71.3486 24.4479 70.5566 23.6919 69.9886 22.7239C69.4206 21.7479 69.1366 20.6079 69.1366 19.3039C69.1366 18.3599 69.3006 17.4919 69.6286 16.6999C69.9646 15.9079 70.4286 15.2239 71.0206 14.6479C71.6206 14.0719 72.3246 13.6279 73.1326 13.3159C73.9486 12.9959 74.8446 12.8359 75.8206 12.8359C76.8926 12.8359 77.8486 13.0279 78.6886 13.4119C79.5286 13.7879 80.2206 14.3159 80.7646 14.9959C81.3166 15.6679 81.6966 16.4639 81.9046 17.3839C82.1126 18.2959 82.1206 19.2879 81.9286 20.3599H72.7366C72.7446 20.8399 72.8886 21.2599 73.1686 21.6199C73.4486 21.9799 73.8326 22.2639 74.3206 22.4719C74.8086 22.6719 75.3766 22.7719 76.0246 22.7719C76.7446 22.7719 77.4286 22.6799 78.0766 22.4959C78.7246 22.3039 79.3446 22.0119 79.9366 21.6199L81.1726 24.2839C80.7966 24.5719 80.3086 24.8319 79.7086 25.0639C79.1166 25.2879 78.4846 25.4639 77.8126 25.5919C77.1486 25.7279 76.5126 25.7959 75.9046 25.7959ZM72.9766 17.7079H78.1846C78.1686 17.0919 77.9406 16.5999 77.5006 16.2319C77.0606 15.8639 76.4646 15.6799 75.7126 15.6799C74.9526 15.6799 74.3206 15.8639 73.8166 16.2319C73.3206 16.5999 73.0406 17.0919 72.9766 17.7079ZM89.5878 25.7959C88.4278 25.7959 87.3878 25.5279 86.4678 24.9919C85.5478 24.4479 84.8238 23.6919 84.2958 22.7239C83.7678 21.7479 83.5038 20.6119 83.5038 19.3159C83.5038 18.3959 83.6558 17.5439 83.9598 16.7599C84.2638 15.9759 84.6878 15.2919 85.2318 14.7079C85.7838 14.1159 86.4358 13.6559 87.1878 13.3279C87.9398 12.9999 88.7638 12.8359 89.6598 12.8359C90.5958 12.8359 91.4398 13.0199 92.1918 13.3879C92.9438 13.7559 93.5998 14.3039 94.1598 15.0319L93.2598 15.9319V8.15591H97.1958V25.4359H93.7998V22.2559L94.3398 23.1439C93.9878 23.9279 93.3998 24.5679 92.5758 25.0639C91.7518 25.5519 90.7558 25.7959 89.5878 25.7959ZM90.3198 22.4119C90.8798 22.4119 91.3838 22.2879 91.8318 22.0399C92.2798 21.7839 92.6318 21.4239 92.8878 20.9599C93.1438 20.4959 93.2718 19.9479 93.2718 19.3159C93.2718 18.6759 93.1438 18.1279 92.8878 17.6719C92.6398 17.2079 92.2918 16.8519 91.8438 16.6039C91.3958 16.3479 90.8878 16.2199 90.3198 16.2199C89.7518 16.2199 89.2438 16.3479 88.7958 16.6039C88.3478 16.8519 87.9958 17.2079 87.7398 17.6719C87.4838 18.1279 87.3558 18.6759 87.3558 19.3159C87.3558 19.9479 87.4838 20.4959 87.7398 20.9599C88.0038 21.4239 88.3598 21.7839 88.8078 22.0399C89.2558 22.2879 89.7598 22.4119 90.3198 22.4119ZM100.46 25.4359V13.1959H104.396V25.4359H100.46ZM102.428 11.3839C101.796 11.3839 101.244 11.1879 100.772 10.7959C100.308 10.3959 100.076 9.86391 100.076 9.19991C100.076 8.51991 100.308 7.98391 100.772 7.59191C101.244 7.19991 101.796 7.00391 102.428 7.00391C103.068 7.00391 103.62 7.19991 104.084 7.59191C104.548 7.98391 104.78 8.51991 104.78 9.19991C104.78 9.86391 104.548 10.3959 104.084 10.7959C103.62 11.1879 103.068 11.3839 102.428 11.3839ZM108.027 25.4359V8.63591H114.759C116.015 8.63591 117.127 8.85591 118.095 9.29591C119.063 9.72791 119.823 10.3599 120.375 11.1919C120.935 12.0239 121.215 13.0239 121.215 14.1919C121.215 15.3759 120.959 16.3799 120.447 17.2039C119.935 18.0279 119.191 18.6559 118.215 19.0879C117.239 19.5199 116.055 19.7359 114.663 19.7359H112.011V25.4359H108.027ZM112.011 16.3999H114.567C115.407 16.3999 116.059 16.2359 116.523 15.9079C116.995 15.5719 117.231 15.0199 117.231 14.2519C117.231 13.4839 116.987 12.9279 116.499 12.5839C116.019 12.2319 115.383 12.0559 114.591 12.0559H112.011V16.3999ZM123.452 25.4359V13.1959H127.388V14.6239C127.756 13.9919 128.244 13.5319 128.852 13.2439C129.46 12.9559 130.12 12.8119 130.832 12.8119C131.104 12.8119 131.348 12.8279 131.564 12.8599C131.78 12.8919 131.992 12.9279 132.2 12.9679L131.732 17.0119C131.46 16.9159 131.172 16.8399 130.868 16.7839C130.564 16.7199 130.26 16.6879 129.956 16.6879C129.212 16.6879 128.596 16.9039 128.108 17.3359C127.628 17.7599 127.388 18.3839 127.388 19.2079V25.4359H123.452ZM137.537 25.7959C136.721 25.7959 135.989 25.6399 135.341 25.3279C134.693 25.0079 134.181 24.5559 133.805 23.9719C133.429 23.3799 133.241 22.6719 133.241 21.8479C133.241 21.1439 133.413 20.5199 133.757 19.9759C134.109 19.4319 134.637 18.9839 135.341 18.6319C136.045 18.2799 136.929 18.0439 137.993 17.9239C139.065 17.7959 140.317 17.7959 141.749 17.9239L141.785 20.3719C141.025 20.2359 140.337 20.1679 139.721 20.1679C139.113 20.1599 138.593 20.2119 138.161 20.3239C137.737 20.4279 137.409 20.5919 137.177 20.8159C136.945 21.0399 136.829 21.3159 136.829 21.6439C136.829 22.0679 136.989 22.3919 137.309 22.6159C137.637 22.8399 138.073 22.9519 138.617 22.9519C139.089 22.9519 139.513 22.8679 139.889 22.6999C140.273 22.5319 140.577 22.2879 140.801 21.9679C141.033 21.6399 141.149 21.2399 141.149 20.7679V17.9719C141.149 17.5319 141.057 17.1439 140.873 16.8079C140.689 16.4719 140.397 16.2119 139.997 16.0279C139.605 15.8359 139.081 15.7399 138.425 15.7399C137.793 15.7399 137.165 15.8359 136.541 16.0279C135.917 16.2119 135.357 16.4919 134.861 16.8679L133.853 14.1679C134.645 13.6719 135.493 13.3079 136.397 13.0759C137.301 12.8359 138.189 12.7159 139.061 12.7159C140.213 12.7159 141.225 12.8999 142.097 13.2679C142.977 13.6359 143.665 14.2039 144.161 14.9719C144.657 15.7399 144.905 16.7239 144.905 17.9239V25.4359H141.509V24.1399C141.117 24.6679 140.577 25.0759 139.889 25.3639C139.201 25.6519 138.417 25.7959 137.537 25.7959ZM153.823 25.7959C152.527 25.7959 151.367 25.5159 150.343 24.9559C149.327 24.3879 148.523 23.6159 147.931 22.6399C147.339 21.6559 147.043 20.5479 147.043 19.3159C147.043 18.3879 147.215 17.5319 147.559 16.7479C147.911 15.9639 148.403 15.2799 149.035 14.6959C149.667 14.1039 150.403 13.6479 151.243 13.3279C152.083 12.9999 152.995 12.8359 153.979 12.8359C154.907 12.8359 155.767 12.9639 156.559 13.2199C157.351 13.4679 158.063 13.8439 158.695 14.3479L156.967 17.2639C156.575 16.9039 156.143 16.6399 155.671 16.4719C155.207 16.3039 154.719 16.2199 154.207 16.2199C153.535 16.2199 152.955 16.3399 152.467 16.5799C151.979 16.8199 151.603 17.1719 151.339 17.6359C151.083 18.0999 150.955 18.6559 150.955 19.3039C150.955 20.2799 151.243 21.0439 151.819 21.5959C152.403 22.1399 153.203 22.4119 154.219 22.4119C154.795 22.4119 155.335 22.3079 155.839 22.0999C156.351 21.8839 156.819 21.5719 157.243 21.1639L158.839 24.1399C158.151 24.6519 157.363 25.0559 156.475 25.3519C155.595 25.6479 154.711 25.7959 153.823 25.7959ZM166.27 25.7959C164.91 25.7959 163.842 25.4159 163.066 24.6559C162.29 23.8879 161.902 22.7439 161.902 21.2239V9.69191H165.838V13.1959H168.706V16.3159H165.838V20.5399C165.838 21.1959 165.982 21.6559 166.27 21.9199C166.558 22.1839 166.93 22.3159 167.386 22.3159C167.634 22.3159 167.878 22.2879 168.118 22.2319C168.366 22.1679 168.594 22.0759 168.802 21.9559L169.306 25.0399C168.93 25.2479 168.478 25.4239 167.95 25.5679C167.422 25.7199 166.862 25.7959 166.27 25.7959ZM159.526 16.3159V13.1959H162.262V16.3159H159.526ZM171.663 25.4359V13.1959H175.599V25.4359H171.663ZM173.631 11.3839C172.999 11.3839 172.447 11.1879 171.975 10.7959C171.511 10.3959 171.279 9.86391 171.279 9.19991C171.279 8.51991 171.511 7.98391 171.975 7.59191C172.447 7.19991 172.999 7.00391 173.631 7.00391C174.271 7.00391 174.823 7.19991 175.287 7.59191C175.751 7.98391 175.983 8.51991 175.983 9.19991C175.983 9.86391 175.751 10.3959 175.287 10.7959C174.823 11.1879 174.271 11.3839 173.631 11.3839ZM183.478 25.7719C182.342 25.7719 181.302 25.6319 180.358 25.3519C179.422 25.0719 178.614 24.6759 177.934 24.1639L179.158 21.4639C179.822 21.8879 180.534 22.2239 181.294 22.4719C182.054 22.7119 182.774 22.8319 183.454 22.8319C184.078 22.8319 184.554 22.7479 184.882 22.5799C185.21 22.4039 185.374 22.1519 185.374 21.8239C185.374 21.5359 185.222 21.3239 184.918 21.1879C184.622 21.0519 184.038 20.9039 183.166 20.7439C181.518 20.4639 180.31 20.0039 179.542 19.3639C178.782 18.7159 178.402 17.8319 178.402 16.7119C178.402 15.9119 178.622 15.2119 179.062 14.6119C179.502 14.0119 180.11 13.5479 180.886 13.2199C181.67 12.8839 182.57 12.7159 183.586 12.7159C184.578 12.7159 185.514 12.8479 186.394 13.1119C187.282 13.3759 188.042 13.7439 188.674 14.2159L187.486 16.9159C187.158 16.6679 186.778 16.4479 186.346 16.2559C185.922 16.0639 185.482 15.9159 185.026 15.8119C184.57 15.7079 184.126 15.6559 183.694 15.6559C183.158 15.6559 182.722 15.7399 182.386 15.9079C182.058 16.0679 181.894 16.2919 181.894 16.5799C181.894 16.8759 182.038 17.0959 182.326 17.2399C182.614 17.3839 183.19 17.5479 184.054 17.7319C185.798 18.0839 187.034 18.5599 187.762 19.1599C188.49 19.7519 188.854 20.5839 188.854 21.6559C188.854 22.4879 188.626 23.2119 188.17 23.8279C187.722 24.4439 187.094 24.9239 186.286 25.2679C185.486 25.6039 184.55 25.7719 183.478 25.7719ZM197.217 25.7959C195.873 25.7959 194.693 25.5279 193.677 24.9919C192.661 24.4479 191.869 23.6919 191.301 22.7239C190.733 21.7479 190.449 20.6079 190.449 19.3039C190.449 18.3599 190.613 17.4919 190.941 16.6999C191.277 15.9079 191.741 15.2239 192.333 14.6479C192.933 14.0719 193.637 13.6279 194.445 13.3159C195.261 12.9959 196.157 12.8359 197.133 12.8359C198.205 12.8359 199.161 13.0279 200.001 13.4119C200.841 13.7879 201.533 14.3159 202.077 14.9959C202.629 15.6679 203.009 16.4639 203.217 17.3839C203.425 18.2959 203.433 19.2879 203.241 20.3599H194.049C194.057 20.8399 194.201 21.2599 194.481 21.6199C194.761 21.9799 195.145 22.2639 195.633 22.4719C196.121 22.6719 196.689 22.7719 197.337 22.7719C198.057 22.7719 198.741 22.6799 199.389 22.4959C200.037 22.3039 200.657 22.0119 201.249 21.6199L202.485 24.2839C202.109 24.5719 201.621 24.8319 201.021 25.0639C200.429 25.2879 199.797 25.4639 199.125 25.5919C198.461 25.7279 197.825 25.7959 197.217 25.7959ZM194.289 17.7079H199.497C199.481 17.0919 199.253 16.5999 198.813 16.2319C198.373 15.8639 197.777 15.6799 197.025 15.6799C196.265 15.6799 195.633 15.8639 195.129 16.2319C194.633 16.5999 194.353 17.0919 194.289 17.7079Z" fill="#0C284F"/>
</svg>
