<svg width="40" height="35" viewBox="0 0 40 35" fill="none" xmlns="http://www.w3.org/2000/svg">
<path fill-rule="evenodd" clip-rule="evenodd" d="M19.9495 5.80664C17.5597 5.80664 15.6224 7.74398 15.6224 10.1338C15.6224 12.5236 17.5597 14.461 19.9495 14.461C22.3394 14.461 24.2767 12.5236 24.2767 10.1338C24.2767 7.74398 22.3394 5.80664 19.9495 5.80664ZM11.4889 14.2249C15.9933 14.2249 19.6448 17.8764 19.6448 22.3807V29.0652H15.5881V22.3807C15.5881 21.901 15.5057 21.4406 15.3542 21.0127L9.39549 26.9715L6.52695 24.103L12.2733 18.3566C12.0195 18.3074 11.7572 18.2816 11.4889 18.2816H4.80444V14.2249H11.4889ZM28.5111 14.2249C24.0068 14.2249 20.3553 17.8764 20.3553 22.3807V29.0652H24.412V22.3807C24.412 22.0049 24.4626 21.641 24.5573 21.2953L30.7906 27.5285L33.6591 24.66L27.4259 18.4268C27.7716 18.3321 28.1355 18.2816 28.5111 18.2816H35.1957V14.2249H28.5111Z" fill="#168BD9"/>
</svg>
